<?xml version="1.0"?>
<svg xmlns="http://www.w3.org/2000/svg" enable-background="new 0 0 32 32" height="512px" viewBox="0 0 32 32" width="512px" class=""><g><path d="m26 32h-20c-3.314 0-6-2.686-6-6v-20c0-3.314 2.686-6 6-6h20c3.314 0 6 2.686 6 6v20c0 3.314-2.686 6-6 6z" fill="#ffe6e2" data-original="#FFE6E2" class="" style="fill:#3C80FF" data-old_color="#ffe6e2"/><path d="m19.667 14c1.102 0 2.129.321 3 .868v-5.201c0-.921-.746-1.667-1.667-1.667h-11.333c-.921 0-1.667.746-1.667 1.667v6c0 .92.746 1.667 1.667 1.667h4.842c.891-1.963 2.865-3.334 5.158-3.334zm-10.334-4.353 6 2.8 6-2.8v1.107l-5.647 2.633c-.113.053-.233.08-.353.08s-.24-.027-.353-.08l-5.647-2.633z" fill="#fc573b" data-original="#FC573B" class="active-path" style="fill:#FFE529" data-old_color="#fc573b"/><path d="m22.398 16.303c-1.018-.827-2.352-1.145-3.659-.873-1.638.341-2.968 1.672-3.31 3.31-.272 1.308.046 2.641.873 3.659.828 1.017 2.054 1.601 3.365 1.601.276 0 .5-.224.5-.5s-.224-.5-.5-.5c-1.008 0-1.951-.449-2.588-1.232s-.881-1.812-.67-2.824c.262-1.255 1.281-2.274 2.535-2.535 1.01-.212 2.04.033 2.824.67.783.637 1.232 1.58 1.232 2.588v.833c0 .276-.225.5-.5.5s-.5-.224-.5-.5v-2.667c0-.276-.224-.5-.5-.5-.253 0-.453.191-.487.435-.381-.271-.844-.435-1.347-.435-1.286 0-2.333 1.047-2.333 2.333s1.047 2.334 2.334 2.334c.622 0 1.184-.248 1.603-.646.271.389.721.646 1.23.646.827 0 1.5-.673 1.5-1.5v-.833c0-1.311-.584-2.537-1.602-3.364zm-2.731 4.697c-.735 0-1.333-.598-1.333-1.333s.598-1.333 1.333-1.333 1.333.597 1.333 1.333-.598 1.333-1.333 1.333z" fill="#fd907e" data-original="#FD907E" class="" style="fill:#FFF39D" data-old_color="#fd907e"/></g> </svg>
