<svg xmlns="http://www.w3.org/2000/svg" viewBox="0 0 150 24">
    <defs>
        <style>.cls-1{fill:none;}.cls-2{fill:#00c853;}</style>
    </defs>
    <title>comento_logo</title>
    <g id="레이어_1" data-name="레이어 1">
        <rect class="cls-1" width="150" height="24"/>
        <path class="cls-2"
              d="M19.83,0a8.89,8.89,0,0,0-8,4.93h5.58a3.88,3.88,0,0,1,0,7.75H15.86a2.54,2.54,0,0,0,0,5.08h4A8.88,8.88,0,0,0,19.83,0Z"/>
        <path class="cls-2"
              d="M15.86,19a3.81,3.81,0,1,1,0-7.62h1.59a2.54,2.54,0,0,0,0-5.08h-4a8.92,8.92,0,0,0-8.84,8.93A8.83,8.83,0,0,0,21.43,19Z"/>
        <path class="cls-2"
              d="M57.72,19.69a7,7,0,1,1,7-7A7,7,0,0,1,57.72,19.69Zm0-11.7a4.67,4.67,0,1,0,4.67,4.67A4.67,4.67,0,0,0,57.72,8Z"/>
        <path class="cls-2"
              d="M138.33,19.69a7,7,0,1,1,7-7A7,7,0,0,1,138.33,19.69Zm0-11.7A4.67,4.67,0,1,0,143,12.65,4.67,4.67,0,0,0,138.33,8Z"/>
        <path class="cls-2"
              d="M116.22,19.37A1.19,1.19,0,0,1,115,18.18V12.65a4.36,4.36,0,1,0-8.7,0v5.53a1.19,1.19,0,1,1-2.37,0V12.65a6.73,6.73,0,1,1,13.44,0v5.53A1.19,1.19,0,0,1,116.22,19.37Z"/>
        <path class="cls-2"
              d="M79.25,5.61a4.83,4.83,0,0,0-3.66,1.68,4.84,4.84,0,0,0-8.5,3.17v7.73a1.19,1.19,0,1,0,2.37,0V10.45a2.47,2.47,0,0,1,4.94,0v7.73a1.19,1.19,0,1,0,2.37,0V10.45a2.47,2.47,0,0,1,4.94,0v7.73a1.19,1.19,0,1,0,2.37,0V10.45A4.85,4.85,0,0,0,79.25,5.61Z"/>
        <path class="cls-2"
              d="M129.61,5.61H119.37a1.19,1.19,0,0,0,0,2.37h3.93v10.2a1.19,1.19,0,1,0,2.37,0V8h3.93a1.19,1.19,0,1,0,0-2.37Z"/>
        <path class="cls-2"
              d="M41.89,19.86A7.21,7.21,0,1,1,45.49,6.4a1.21,1.21,0,0,1-1.21,2.1,4.78,4.78,0,1,0,2.4,4.15,1.21,1.21,0,1,1,2.43,0A7.22,7.22,0,0,1,41.89,19.86Z"/>
        <path class="cls-2"
              d="M100.06,11.43a1.22,1.22,0,0,0-1.22,1.22,4.81,4.81,0,1,1-2.25-4.07L93.28,11.9a1.06,1.06,0,1,0,1.51,1.51s3.72-3.69,3.85-3.85a1.67,1.67,0,0,0-.14-2.62,7.25,7.25,0,1,0,2.79,5.71A1.22,1.22,0,0,0,100.06,11.43Z"/>
    </g>
</svg>