<?xml version="1.0"?>
<svg xmlns="http://www.w3.org/2000/svg" xmlns:xlink="http://www.w3.org/1999/xlink" version="1.1" id="Capa_1" x="0px" y="0px" viewBox="0 0 512 512" style="enable-background:new 0 0 512 512;" xml:space="preserve" width="512px" height="512px"><g><g>
	<g>
		<path d="M257.38,291.84h-72.33c-8.25,0-14.95,6.71-14.95,14.95v43.73h102.23v-43.73C272.33,298.55,265.63,291.84,257.38,291.84z" data-original="#000000" class="active-path" data-old_color="#000000" fill="#FFFFFF"/>
	</g>
</g><g>
	<g>
		<path d="M221.22,209.36c-4.07,0-7.92,0.93-11.36,2.59c-0.01,0-0.01,0-0.01,0c-8.79,4.25-14.87,13.25-14.87,23.65    c0,14.47,11.77,26.24,26.24,26.24c7.73,0,14.7-3.37,19.51-8.71c4.18-4.65,6.72-10.79,6.72-17.53    C247.45,221.13,235.68,209.36,221.22,209.36z" data-original="#000000" class="active-path" data-old_color="#000000" fill="#FFFFFF"/>
	</g>
</g><g>
	<g>
		<polygon points="90.14,0 90.14,42.27 421.86,42.27 421.86,469.72 467.25,469.72 467.25,0   " data-original="#000000" class="active-path" data-old_color="#000000" fill="#FFFFFF"/>
	</g>
</g><g>
	<g>
		<path d="M120.14,72.27h-15h-15H44.75V512h347.11v-57.28V72.27H120.14z M302.33,335.3v45.22H140.1v-73.73    c0-20.42,13.69-37.71,32.38-43.16c-4.77-8.26-7.5-17.83-7.5-28.03c0-20.2,10.7-37.93,26.72-47.86h0.01    c8.58-5.31,18.69-8.38,29.51-8.38c31.01,0,56.23,25.23,56.23,56.24c0,10.2-2.73,19.77-7.5,28.03    c18.69,5.45,32.38,22.74,32.38,43.16V335.3z" data-original="#000000" class="active-path" data-old_color="#000000" fill="#FFFFFF"/>
	</g>
</g></g> </svg>
